<svg width="45" height="27" viewBox="0 0 45 27" fill="none" xmlns="http://www.w3.org/2000/svg">
<path d="M9.1449 15.4028C9.1449 15.7652 9.32602 15.9464 9.68819 15.9464C10.322 15.9464 10.6842 15.4028 10.7747 14.5873C10.5936 14.5873 10.5936 14.5873 10.4125 14.5873C9.59764 14.5873 9.1449 14.8592 9.1449 15.4028Z" fill="#828282"/>
<path d="M32.324 15.4028C32.324 15.7652 32.505 15.9464 32.8672 15.9464C33.501 15.9464 33.8632 15.4028 33.9537 14.5873C33.7727 14.5873 33.7726 14.5873 33.5915 14.5873C32.6861 14.5873 32.324 14.8592 32.324 15.4028Z" fill="#828282"/>
<path d="M21.2776 12.6846C20.8249 12.6846 20.4627 13.047 20.3722 13.6812H22.002C22.002 13.5 22.1831 12.6846 21.2776 12.6846Z" fill="#828282"/>
<path d="M40.9256 12.8657C40.2918 12.8657 39.7485 13.6811 39.7485 14.7684C39.7485 15.4932 40.0202 15.8556 40.4729 15.8556C41.1972 15.8556 41.6499 15.0402 41.6499 13.953C41.7405 13.2281 41.4688 12.8657 40.9256 12.8657Z" fill="#828282"/>
<path d="M31.509 0C28.0684 0 24.8994 1.26845 22.4547 3.44294C20.1006 1.26845 16.9316 0 13.491 0C6.06642 0 0 6.07049 0 13.5C0 20.9296 6.06642 27 13.491 27C16.9316 27 20.1006 25.7316 22.4547 23.5571C24.8088 25.7316 27.9778 27 31.509 27C38.9336 27 45 20.9296 45 13.5C45 6.07049 38.9336 0 31.509 0ZM5.70421 17.1242L6.51912 11.8691L4.61768 17.1242H3.62173L3.53121 11.8691L2.62578 17.1242H1.26763L2.44468 10.2382H4.52716L4.61768 14.4967L6.06641 10.2382H8.32999L7.15294 17.1242H5.70421ZM10.5936 17.1242V16.5805C10.2314 17.0336 9.68813 17.2148 9.05432 17.2148C8.23943 17.2148 7.69618 16.5805 7.69618 15.6745C7.69618 14.3154 8.6016 13.5 10.2314 13.5C10.4125 13.5 10.5936 13.5 10.8652 13.5C10.9557 13.3188 10.9557 13.2282 10.9557 13.1376C10.9557 12.7752 10.6841 12.594 10.0503 12.594C9.32593 12.594 8.78272 12.7752 8.51109 12.8658C8.51109 12.7752 8.69213 11.5973 8.69213 11.5973C9.41647 11.4161 9.86921 11.3255 10.4125 11.3255C11.6801 11.3255 12.3139 11.8691 12.3139 12.9564C12.3139 13.2282 12.3139 13.5906 12.2233 14.0436C12.1328 14.8591 11.8612 16.5805 11.7706 17.0336C11.5895 17.1242 10.5936 17.1242 10.5936 17.1242ZM14.9396 13.7718C15.664 14.1342 15.9356 14.5873 15.9356 15.3121C15.9356 16.5806 15.2112 17.2148 13.672 17.2148C12.7666 17.2148 12.495 17.1242 12.1328 17.0336C12.1328 16.9429 12.3139 15.7651 12.3139 15.7651C12.7666 15.9463 13.2193 15.9463 13.672 15.9463C14.2153 15.9463 14.4869 15.7651 14.4869 15.4027C14.4869 15.1309 14.3964 15.0403 13.7626 14.7685C12.9477 14.406 12.6761 13.953 12.6761 13.2282C12.6761 12.2315 13.2193 11.3255 14.8491 11.3255C15.2113 11.3255 15.7545 11.4161 16.1167 11.4161L15.9356 12.6846C15.5734 12.594 15.2113 12.594 14.8491 12.594C14.3964 12.594 14.1247 12.7752 14.1247 13.047C14.2153 13.4094 14.3058 13.5 14.9396 13.7718ZM18.1086 15.8557C18.2897 15.8557 18.3803 15.8557 18.4708 15.7651L18.2897 17.0336C17.9276 17.1242 17.5654 17.2148 17.2032 17.2148C16.4789 17.2148 16.0262 16.7617 16.0262 15.9463C16.0262 15.6745 16.1167 15.0403 16.2073 14.4967C16.2978 13.953 16.841 10.6913 16.841 10.6913H18.2897L18.1086 11.5067H18.833L18.6519 12.8658H17.9275C17.7465 13.953 17.4748 15.2215 17.4748 15.4027C17.6559 15.6745 17.837 15.8557 18.1086 15.8557ZM21.5493 15.9463C22.0925 15.9463 22.5453 15.8557 23.0885 15.5839L22.8169 16.943C22.2736 17.1242 21.8209 17.1242 21.2777 17.1242C19.6479 17.1242 18.833 16.3087 18.833 14.6779C18.833 12.7752 19.9195 11.3255 21.3682 11.3255C22.5452 11.3255 23.3601 12.141 23.3601 13.3188C23.3601 13.7718 23.2696 14.1342 23.179 14.6779H20.2817C20.1912 15.5839 20.7344 15.9463 21.5493 15.9463ZM24.8089 17.1242H23.3601L23.4507 16.7618C23.7223 15.0403 23.994 13.3188 24.1751 11.5973H25.5332C25.5332 11.8691 25.4426 12.141 25.4426 12.4128C25.8953 11.7785 26.2575 11.4161 26.8914 11.5067C26.7103 11.7785 26.4386 12.4128 26.3481 13.1376C25.4426 13.047 25.3521 13.6812 24.8089 17.1242ZM30.4225 17.0336C29.8792 17.2148 29.5171 17.2148 29.1549 17.2148C27.6157 17.2148 26.6197 16.0369 26.6197 14.2248C26.6197 11.7785 27.9778 10.057 29.9698 10.057C30.6036 10.057 31.328 10.3289 31.5996 10.4195L31.3279 11.8691C30.7847 11.5973 30.4225 11.5067 30.0604 11.5067C28.9738 11.5067 28.1589 12.594 28.1589 14.0436C28.1589 15.0403 28.7022 15.6745 29.5171 15.6745C29.8792 15.6745 30.2414 15.5839 30.7847 15.3121L30.4225 17.0336ZM34.9497 17.1242C34.7686 17.1242 33.7726 17.1242 33.7726 17.1242V16.5805C33.4104 17.0336 32.8672 17.2148 32.2334 17.2148C31.4185 17.2148 30.8752 16.5805 30.8752 15.6745C30.8752 14.3154 31.7807 13.5 33.4105 13.5C33.5916 13.5 33.7726 13.5 34.0442 13.5C34.1348 13.3188 34.1348 13.2282 34.1348 13.1376C34.1348 12.7752 33.8632 12.594 33.2294 12.594C32.505 12.594 31.9618 12.7752 31.6901 12.8658C31.6901 12.7752 31.8712 11.5973 31.8712 11.5973C32.5956 11.4161 33.0483 11.3255 33.5915 11.3255C34.8591 11.3255 35.493 11.8691 35.493 12.9564C35.493 13.2282 35.4929 13.5906 35.4024 14.0436C35.2213 14.9497 34.9497 16.6712 34.9497 17.1242ZM36.9416 17.1242H35.493L35.5835 16.7618C35.8551 15.0403 36.1267 13.3188 36.3078 11.5973H37.666C37.666 11.8691 37.5754 12.141 37.5754 12.4128C38.0282 11.7785 38.3903 11.4161 39.0241 11.5067C38.843 11.7785 38.5714 12.4128 38.4809 13.1376C37.5754 13.047 37.3943 13.6812 36.9416 17.1242ZM41.2877 17.1242L41.3783 16.5805C41.0161 17.0336 40.5634 17.2148 40.0201 17.2148C38.9336 17.2148 38.2093 16.3088 38.2093 14.8591C38.2093 13.047 39.2958 11.4161 40.5634 11.4161C41.1066 11.4161 41.5593 11.6879 41.9215 12.141L42.2837 10.1477H43.7324L42.6458 17.0336H41.2877V17.1242Z" fill="#828282"/>
</svg>
