<svg width="49" height="16" viewBox="0 0 49 16" fill="none" xmlns="http://www.w3.org/2000/svg">
<path d="M20.2 0.299988L16.9 15.5H20.9L24.1 0.299988H20.2Z" fill="#828282"/>
<path d="M14.4 0.299988L10.3 10.6L8.59998 1.79999C8.39998 0.799988 7.59999 0.299988 6.79999 0.299988H0.0999756L0 0.700012C1.4 1.00001 2.90002 1.5 3.90002 2C4.50002 2.3 4.59999 2.59999 4.79999 3.29999L7.90002 15.4H12.1L18.5 0.200012H14.4V0.299988Z" fill="#828282"/>
<path d="M45.5 0.299988H42.1C41.3 0.299988 40.7 0.700024 40.4 1.40002L34.5 15.5H38.6L39.4 13.2H44.4L44.9 15.5H48.5L45.5 0.299988ZM40.7 10.1L42.8 4.40002L44 10.1H40.7Z" fill="#828282"/>
<path d="M29.3 4.5C29.3 4 29.8 3.40001 31 3.20001C31.6 3.10001 33.1 3.10002 34.9 3.90002L35.6 0.700012C34.7 0.400012 33.4 0 31.9 0C28 0 25.3 2.1 25.3 5C25.3 7.2 27.3 8.39998 28.7 9.09998C30.2 9.79998 30.7 10.3 30.7 11C30.7 12 29.5 12.5 28.3 12.5C26.3 12.5 25.2 12 24.3 11.5L23.6 14.8C24.5 15.2 26.2 15.6 28 15.6C32.1 15.6 34.8 13.6 34.8 10.4C34.8 6.60002 29.2 6.3 29.3 4.5Z" fill="#828282"/>
</svg>
