<svg width="49" height="15" viewBox="0 0 49 15" fill="none" xmlns="http://www.w3.org/2000/svg">
<path fill-rule="evenodd" clip-rule="evenodd" d="M37.795 2.30797C36.586 2.30797 35.629 2.67197 34.897 2.83997L34.672 4.93397C35.037 4.73697 36.19 4.36997 37.151 4.33797C38.108 4.30297 38.669 4.53297 38.473 5.46797C35.629 5.46797 33.713 6.13397 33.318 8.22597C32.755 11.815 36.22 11.719 37.596 10.156L37.431 11.018H39.965L41.063 5.29897C41.515 2.87497 39.572 2.27497 37.795 2.30797ZM37.964 8.15597C37.823 8.92397 37.286 9.25697 36.642 9.28697C36.076 9.31997 35.571 8.75997 35.935 8.09397C36.219 7.52597 37.007 7.39697 37.488 7.39697C37.682 7.39697 37.91 7.39697 38.107 7.39697C38.05 7.65997 38.023 7.89197 37.964 8.15597Z" fill="#828282"/>
<path fill-rule="evenodd" clip-rule="evenodd" d="M43.228 0.0479736L41.136 11.017H43.712L45.832 0.0479736H43.228Z" fill="#828282"/>
<path fill-rule="evenodd" clip-rule="evenodd" d="M31.402 0.0800171H26.689L24.599 11.018H27.337L28.043 7.39702H29.993C31.911 7.39702 33.493 6.06302 33.915 3.80402C34.398 1.24402 32.759 0.0800171 31.402 0.0800171ZM31.317 3.80402C31.148 4.63502 30.413 5.29902 29.711 5.29902H28.441L29.005 2.30802H30.36C31.064 2.30802 31.486 2.97302 31.317 3.80402Z" fill="#828282"/>
<path fill-rule="evenodd" clip-rule="evenodd" d="M13.115 2.30797C11.92 2.30797 10.972 2.67197 10.275 2.83997L10.055 4.93397C10.389 4.73697 11.531 4.36997 12.475 4.33797C13.42 4.30297 13.976 4.53297 13.809 5.46797C10.999 5.46797 9.10703 6.13397 8.72203 8.22597C8.16103 11.815 11.587 11.719 12.919 10.156L12.753 11.018H15.284L16.367 5.29897C16.813 2.87497 14.867 2.27497 13.115 2.30797ZM13.31 8.15597C13.168 8.92397 12.613 9.25697 11.971 9.28697C11.42 9.31997 10.946 8.75997 11.309 8.09397C11.587 7.52597 12.362 7.39697 12.809 7.39697C13.028 7.39697 13.228 7.39697 13.449 7.39697C13.393 7.65997 13.337 7.89197 13.31 8.15597Z" fill="#828282"/>
<path fill-rule="evenodd" clip-rule="evenodd" d="M17.472 2.46503H20.001L20.41 7.55703L22.884 2.46503H25.502L19.482 14.658H16.653L18.504 11.072L17.472 2.46503Z" fill="#828282"/>
<path fill-rule="evenodd" clip-rule="evenodd" d="M6.817 0.0800171H2.097L0 11.017H2.774L3.453 7.39602H5.433C7.328 7.39602 8.914 6.06202 9.339 3.80302C9.819 1.24402 8.205 0.0800171 6.817 0.0800171ZM6.733 3.80402C6.566 4.63502 5.858 5.29902 5.15 5.29902H3.85L4.442 2.30802H5.8C6.479 2.30802 6.934 2.97302 6.733 3.80402Z" fill="#828282"/>
<path d="M46.386 1.465V0.172001H45.962V0H46.983V0.172001H46.556V1.465H46.386Z" fill="#828282"/>
<path d="M47.156 1.465V0H47.41L47.713 1.037C47.743 1.133 47.762 1.204 47.776 1.25C47.792 1.197 47.814 1.121 47.845 1.02L48.156 0H48.383V1.465H48.219V0.236L47.846 1.465H47.688L47.318 0.217001V1.465H47.156Z" fill="#828282"/>
</svg>
