<svg width="23" height="23" viewBox="0 0 23 23" fill="none" xmlns="http://www.w3.org/2000/svg">
<path fill-rule="evenodd" clip-rule="evenodd" d="M11.5 23C17.8513 23 23 17.8513 23 11.5C23 5.14873 17.8513 0 11.5 0C5.14873 0 0 5.14873 0 11.5C0 17.8513 5.14873 23 11.5 23ZM11.5 22C17.299 22 22 17.299 22 11.5C22 5.70101 17.299 1 11.5 1C5.70101 1 1 5.70101 1 11.5C1 17.299 5.70101 22 11.5 22ZM7.25739 16.4498L6.55023 15.7426L10.7929 11.5L6.55023 7.25735L7.25739 6.55025L11.5 10.7929L15.7426 6.55025L16.4498 7.25735L12.2071 11.5L16.4498 15.7426L15.7426 16.4498L11.5 12.2071L7.25739 16.4498Z" fill="#BDBDBD"/>
</svg>
