<svg width="61" height="60" viewBox="0 0 61 60" fill="none" xmlns="http://www.w3.org/2000/svg">
<path d="M5.5 36V47.3333C5.5 47.7661 5.64036 48.1871 5.9 48.5333L6.4 49.2C6.77771 49.7036 7.37049 50 8 50H11C12.1046 50 13 49.1046 13 48V33C13 31.8954 12.1046 31 11 31H8C7.37049 31 6.77771 31.2964 6.4 31.8L5.9 32.4667C5.64036 32.8129 5.5 33.2339 5.5 33.6667V36ZM5.5 36H3.5C2.39543 36 1.5 36.8954 1.5 38V42.8333C1.5 43.2661 1.64036 43.6871 1.9 44.0333L2.4 44.7C2.77771 45.2036 3.37049 45.5 4 45.5H5M9 47.5V34" stroke="#4F4F4F" stroke-width="2" style="stroke: #4F4F4F; stroke-width: 2;"/>
<path d="M55.5 36V47.3333C55.5 47.7661 55.3596 48.1871 55.1 48.5333L54.6 49.2C54.2223 49.7036 53.6295 50 53 50H52M55.5 36V33.6667C55.5 33.2339 55.3596 32.8129 55.1 32.4667L54.6 31.8C54.2223 31.2964 53.6295 31 53 31H50C48.8954 31 48 31.8954 48 33V48C48 49.1046 48.8954 50 50 50H52M55.5 36H57.5C58.6046 36 59.5 36.8954 59.5 38V42.8333C59.5 43.2661 59.3596 43.6871 59.1 44.0333L58.6 44.7C58.2223 45.2036 57.6295 45.5 57 45.5H56M52 47.5V34M52 50V55C52 56.1046 51.1046 57 50 57H41.5" stroke="#4F4F4F" stroke-width="2" style="stroke: #4F4F4F; stroke-width: 2;"/>
<path d="M51.9997 27.5C55.5 -4.5 7.99995 -10.5 8.9997 27.5" stroke="#4F4F4F" stroke-width="2" style="stroke: #4F4F4F; stroke-width: 2;"/>
<path d="M47.995 25C48.4747 2.00917 13.9588 -2.39335 13 24.5108" stroke="#6FCF97" stroke-width="2" style="stroke: #6FCF97; stroke-width: 2;"/>
<rect x="28" y="55" width="10" height="4" rx="2" stroke="#6FCF97" stroke-width="2" style="stroke: #6FCF97; stroke-width: 2;"/>
<path d="M38.671 44.3493L38.3967 44.8103L38.6291 45.2938L39.5864 47.2856L37.1764 46.7878L36.7221 46.6939L36.3571 46.9802C34.7431 48.2459 32.711 49 30.5 49C25.2533 49 21 44.7467 21 39.5C21 34.2533 25.2533 30 30.5 30C35.7467 30 40 34.2533 40 39.5C40 41.2735 39.515 42.9306 38.671 44.3493Z" stroke="#6FCF97" stroke-width="2" style="stroke: #6FCF97; stroke-width: 2;"/>
<rect x="25" y="36" width="2" height="2" fill="#6FCF97" style="fill: #6FCF97;"/>
<rect x="29" y="36" width="7" height="2" fill="#6FCF97" style="fill: #6FCF97;"/>
<rect x="25" y="41" width="5" height="2" fill="#6FCF97" style="fill: #6FCF97;"/>
<rect x="31" y="41" width="5" height="2" fill="#6FCF97" style="fill: #6FCF97;"/>
</svg>
