<svg width="57" height="43" viewBox="0 0 57 43" fill="none" xmlns="http://www.w3.org/2000/svg">
<rect x="1" y="1" width="55" height="41" rx="4" stroke="#4F4F4F" stroke-width="2" style="stroke: #4F4F4F; stroke-width: 2;"/>
<circle cx="6.5" cy="6.5" r="1.5" fill="#4F4F4F" style="fill: #4F4F4F;"/>
<circle cx="11.5" cy="6.5" r="1.5" fill="#4F4F4F" style="fill: #4F4F4F;"/>
<circle cx="16.5" cy="6.5" r="1.5" fill="#4F4F4F" style="fill: #4F4F4F;"/>
<path d="M5 11H52" stroke="black" style="stroke: #000;"/>
<path d="M19.5 29.64C19.5 29.1067 19.64 28.7133 19.92 28.46C20.2 28.1933 20.6467 28.06 21.26 28.06C21.8733 28.06 22.32 28.1933 22.6 28.46C22.88 28.7133 23.02 29.12 23.02 29.68C23.02 30.7067 22.4333 31.22 21.26 31.22C20.0867 31.22 19.5 30.6933 19.5 29.64ZM19.5 23.78C19.5 23.2467 19.64 22.8533 19.92 22.6C20.2 22.3333 20.6467 22.2 21.26 22.2C21.8733 22.2 22.32 22.3333 22.6 22.6C22.88 22.8533 23.02 23.26 23.02 23.82C23.02 24.8467 22.4333 25.36 21.26 25.36C20.0867 25.36 19.5 24.8333 19.5 23.78ZM31.338 18.58L27.018 33.94H23.718L28.018 18.58H31.338ZM38.5645 18.58L34.2445 33.94H30.9445L35.2445 18.58H38.5645Z" fill="#6FCF97" style="fill: #6FCF97;"/>
</svg>
