<svg width="56" height="50" viewBox="0 0 56 50" fill="none" xmlns="http://www.w3.org/2000/svg">
<path d="M29.9441 8.48624L3.00488 35.1066C2.8462 35.2634 2.7445 35.4688 2.71598 35.6901L1.16575 47.7143C1.08195 48.3644 1.63563 48.9179 2.28562 48.834L14.3017 47.2822C14.521 47.2539 14.7248 47.1537 14.8811 46.9973L41.92 19.9358M29.9441 8.48624L36.8258 1.68594C37.2119 1.30443 37.8319 1.30055 38.2227 1.67721L48.6669 11.743C49.0696 12.1311 49.0757 12.7741 48.6803 13.1698L41.92 19.9358M29.9441 8.48624L41.92 19.9358M15.52 34.4679L29.16 21.2569" stroke="#4F4F4F" stroke-width="2" style="stroke: #4F4F4F; stroke-width: 2;"/>
<path d="M55.9999 49H23.8799" stroke="#6FCF97" stroke-width="2" style="stroke: #6FCF97; stroke-width: 2;"/>
</svg>
