<svg width="12" height="12" viewBox="0 0 12 12" fill="none" xmlns="http://www.w3.org/2000/svg">
<path d="M6.00014 7.2C7.65437 7.2 8.99539 5.58822 8.99539 3.6C8.99539 1.61177 7.65437 0 6.00014 0C4.3459 0 3.00488 1.61177 3.00488 3.6C3.00488 5.58822 4.3459 7.2 6.00014 7.2Z" fill="#6FCF97"/>
<path d="M11.8707 10.26C11.3316 9.18001 10.3132 8.28 8.99525 7.74C8.63582 7.62 8.21649 7.62 7.91696 7.8C7.31791 8.16 6.71886 8.34 6 8.34C5.28114 8.34 4.68209 8.16 4.08304 7.8C3.78351 7.68 3.36418 7.62 3.00475 7.8C1.68683 8.34 0.668446 9.24001 0.1293 10.32C-0.290035 11.1 0.368921 12 1.2675 12H10.7325C11.6311 12 12.29 11.1 11.8707 10.26Z" fill="#6FCF97"/>
</svg>
