<svg width="56" height="55" viewBox="0 0 56 55" fill="none" xmlns="http://www.w3.org/2000/svg">
<path d="M40 13.5H25.3257C24.6614 13.5 24.1817 12.8641 24.3642 12.2253L26 6.50003C28 -0.500012 14 -0.500008 15.5 6.50003L17.5227 12.1637C17.7553 12.8149 17.2725 13.5 16.581 13.5H2C1.44772 13.5 1 13.9477 1 14.5V30.057C1 30.7552 1.69737 31.2385 2.35112 30.9934L9 28.5C15.9748 26.009 15.9999 40.8923 9.07528 39.5156C9.02698 39.506 8.97685 39.4913 8.93074 39.474L2.39321 37.0225C1.72806 36.773 1.02221 37.2773 1.0425 37.9874L1.47224 53.0286C1.4877 53.5695 1.93067 54 2.47184 54H17.1398C17.8144 54 18.2955 53.3457 18.0943 52.7017L16 46C13 39 29 39 26.5 46L24.4057 52.7017C24.2045 53.3457 24.6856 54 25.3602 54H40C40.5523 54 41 53.5523 41 53V37.943C41 37.2448 41.6974 36.7615 42.3511 37.0067L49 39.5C57 41.5 57 25.5 49 28L42.4008 30.8872C41.7401 31.1762 41 30.6922 41 29.971V14.5C41 13.9477 40.5523 13.5 40 13.5Z" stroke="#6FCF97" stroke-width="2" style="stroke: #6FCF97; stroke-width: 2; "/>
</svg>
