<svg width="47" height="58" viewBox="0 0 47 58" fill="none" xmlns="http://www.w3.org/2000/svg">
<path d="M19.8806 54.5001C22.6009 55.8454 23.3586 56.4815 27.2082 56.0212C27.3207 56.0078 27.4342 55.9734 27.5354 55.9223C32.2655 53.5307 33.9867 51.4212 37.0817 47.845C37.2713 47.6259 37.547 47.5001 37.8367 47.5001H43.1533C43.5869 47.5001 43.972 47.2206 44.1013 46.8068C46.1468 40.26 46.2778 36.1892 44.1166 29.2424C43.9806 28.8053 43.5604 28.5222 43.1033 28.5472C41.1229 28.6552 39.4185 28.6497 36.4103 28.5229C36.0799 28.509 35.7766 28.3307 35.6013 28.0502C33.2831 24.3414 31.667 22.2956 28.3809 19C23.1124 14.1348 20.9583 11.0887 19.4118 7.08048C19.3912 7.02716 19.3751 6.97052 19.3639 6.91447C18.6606 3.38314 17.8405 2.22922 15.3806 2.00013C12.7974 1.90536 11.3806 3.00006 11.3806 7.00013C11.3805 10.7915 15.8723 16.3793 17.1928 23.7641C17.3056 24.3947 16.7711 24.9404 16.132 24.8958C1.64229 23.8835 -2.4416 30.6918 3.88115 37.5001M19.8806 54.5001C15.3806 57.0001 9.88056 55.5001 10.8806 50.0001M19.8806 54.5001L25.157 52.0649C25.7662 51.7837 25.9311 50.9941 25.4853 50.4925L22.3809 47M10.8806 50.0001C6.88056 49.5001 4.98355 47.6802 6.38056 44.5001M10.8806 50.0001C15.1524 50.3373 17.3028 49.6658 22.3809 47M6.38056 44.5001C2.38024 43.5001 1.30016 40.6094 3.88115 37.5001M6.38056 44.5001C11.3809 45 15.6656 44.3057 21.3809 41.5M3.88115 37.5001C8.21943 39.4499 11.4304 38.9098 18.3809 35.5M22.3809 47L24.5844 45.7408C25.2024 45.3877 25.264 44.5202 24.7022 44.0833L21.3809 41.5M21.3809 41.5L22.8574 40.3187C23.3726 39.9066 23.3545 39.1172 22.8209 38.7291L18.3809 35.5M18.3809 35.5L19.8632 34.6106C20.3949 34.2916 20.5121 33.5666 20.0851 33.117C17.085 29.9581 14.6977 29.5298 9.88086 31.5C8.49145 31.9733 7.88086 32 6.88086 32" stroke="#6FCF97" stroke-width="2" stroke-linecap="round" style="stroke: #6FCF97; stroke-width: 2;"/>
</svg>
