<svg width="14" height="15" viewBox="0 0 14 15" fill="none" xmlns="http://www.w3.org/2000/svg">
<path d="M9.3245 8.41282C10.5969 7.61211 11.4498 6.18011 11.4498 4.54498C11.4498 2.03888 9.45349 0 7 0C4.54651 0 2.55017 2.03888 2.55017 4.54498C2.55017 6.18011 3.40306 7.61211 4.67549 8.41282C1.92796 9.04228 0 10.7618 0 12.8427C0 14.5456 4.40029 15 7 15C9.59971 15 14 14.5456 14 12.8427C14 10.7618 12.072 9.04228 9.3245 8.41282ZM3.46688 4.54498C3.46688 2.55585 5.05201 0.9375 7 0.9375C8.94799 0.9375 10.5331 2.55585 10.5331 4.54498C10.5331 6.53412 8.94799 8.15216 7 8.15216C5.05201 8.15216 3.46688 6.53412 3.46688 4.54498ZM7 14.0625C3.26292 14.0625 1.02592 13.2563 0.916963 12.8395C0.919798 10.7716 3.64767 9.08966 7 9.08966C10.352 9.08966 13.0796 10.7713 13.083 12.8389C12.9768 13.2553 10.7395 14.0625 7 14.0625Z" fill="white"/>
</svg>
