<svg width="49" height="56" viewBox="0 0 49 56" fill="none" xmlns="http://www.w3.org/2000/svg">
<path d="M15.5 12L33.5 21" stroke="#6FCF97" stroke-width="2" style="stroke: #6FCF97; stroke-width: 2;"/>
<path d="M15 37.5L33 28.5" stroke="#6FCF97" stroke-width="2" style="stroke: #6FCF97; stroke-width: 2;"/>
<path fill-rule="evenodd" clip-rule="evenodd" d="M8.50071 45.7549C10.8444 45.7549 12.7504 43.82 12.7504 41.4424C12.7504 39.0648 10.8444 37.1299 8.50071 37.1299C6.15703 37.1299 4.25106 39.064 4.25106 41.4424C4.25106 43.8207 6.15703 45.7549 8.50071 45.7549ZM8.50071 37.8486C10.4541 37.8486 12.0421 39.4601 12.0421 41.4424C12.0421 43.4247 10.4541 45.0361 8.50071 45.0361C6.54729 45.0361 4.95933 43.4247 4.95933 41.4424C4.95933 39.4601 6.54729 37.8486 8.50071 37.8486Z" fill="#6FCF97" style="fill: #6FCF97;"/>
<path fill-rule="evenodd" clip-rule="evenodd" d="M8.49929 33C3.81193 33 0 36.8209 0 41.6257C0 46.657 4.25035 51.8039 7.34905 55.4214C7.36039 55.4358 7.85759 56 8.47238 56C8.47379 56 8.52408 56 8.52691 56C9.14099 56 9.6389 55.4358 9.65024 55.4214C12.7504 51.8039 17 46.6577 17 41.6257C17 36.8209 13.1874 33 8.49929 33ZM8.58216 54.4784C8.56729 54.4928 8.52408 54.5244 8.48654 54.5488C8.47946 54.5294 8.42705 54.487 8.39517 54.4532C5.79935 51.4223 1.41655 46.3069 1.41655 41.6257C1.41655 37.6625 4.59458 34.4375 8.49929 34.4375C12.4061 34.4375 15.5835 37.6625 15.5835 41.6264C15.5835 46.3069 11.2007 51.4223 8.58216 54.4784Z" fill="#4F4F4F" style="fill: #4F4F4F;"/>
<path fill-rule="evenodd" clip-rule="evenodd" d="M8.50071 12.7549C10.8444 12.7549 12.7504 10.82 12.7504 8.44238C12.7504 6.06476 10.8444 4.12988 8.50071 4.12988C6.15703 4.12988 4.25106 6.06404 4.25106 8.44238C4.25106 10.8207 6.15703 12.7549 8.50071 12.7549ZM8.50071 4.84863C10.4541 4.84863 12.0421 6.46007 12.0421 8.44238C12.0421 10.4247 10.4541 12.0361 8.50071 12.0361C6.54729 12.0361 4.95933 10.4247 4.95933 8.44238C4.95933 6.46007 6.54729 4.84863 8.50071 4.84863Z" fill="#6FCF97" style="fill: #6FCF97;"/>
<path fill-rule="evenodd" clip-rule="evenodd" d="M8.49929 0C3.81193 0 0 3.82088 0 8.62572C0 13.657 4.25035 18.8039 7.34905 22.4214C7.36039 22.4358 7.85759 23 8.47238 23C8.47379 23 8.52408 23 8.52691 23C9.14099 23 9.6389 22.4358 9.65024 22.4214C12.7504 18.8039 17 13.6577 17 8.62572C17 3.82088 13.1874 0 8.49929 0ZM8.58216 21.4784C8.56729 21.4928 8.52408 21.5244 8.48654 21.5488C8.47946 21.5294 8.42705 21.487 8.39517 21.4532C5.79935 18.4223 1.41655 13.3069 1.41655 8.62572C1.41655 4.66253 4.59458 1.4375 8.49929 1.4375C12.4061 1.4375 15.5835 4.66253 15.5835 8.62644C15.5835 13.3069 11.2007 18.4223 8.58216 21.4784Z" fill="#4F4F4F" style="fill: #4F4F4F;"/>
<path fill-rule="evenodd" clip-rule="evenodd" d="M40.5007 28.7549C42.8444 28.7549 44.7504 26.82 44.7504 24.4424C44.7504 22.0648 42.8444 20.1299 40.5007 20.1299C38.157 20.1299 36.2511 22.064 36.2511 24.4424C36.2511 26.8207 38.157 28.7549 40.5007 28.7549ZM40.5007 20.8486C42.4541 20.8486 44.0421 22.4601 44.0421 24.4424C44.0421 26.4247 42.4541 28.0361 40.5007 28.0361C38.5473 28.0361 36.9593 26.4247 36.9593 24.4424C36.9593 22.4601 38.5473 20.8486 40.5007 20.8486Z" fill="#6FCF97" style="fill: #6FCF97;"/>
<path fill-rule="evenodd" clip-rule="evenodd" d="M40.4993 16C35.8119 16 32 19.8209 32 24.6257C32 29.657 36.2504 34.8039 39.3491 38.4214C39.3604 38.4358 39.8576 39 40.4724 39C40.4738 39 40.5241 39 40.5269 39C41.141 39 41.6389 38.4358 41.6502 38.4214C44.7504 34.8039 49 29.6577 49 24.6257C49 19.8209 45.1874 16 40.4993 16ZM40.5822 37.4784C40.5673 37.4928 40.5241 37.5244 40.4865 37.5488C40.4795 37.5294 40.427 37.487 40.3952 37.4532C37.7993 34.4223 33.4165 29.3069 33.4165 24.6257C33.4165 20.6625 36.5946 17.4375 40.4993 17.4375C44.4061 17.4375 47.5835 20.6625 47.5835 24.6264C47.5835 29.3069 43.2007 34.4223 40.5822 37.4784Z" fill="#4F4F4F" style="fill: #4F4F4F;"/>
</svg>
