<svg width="13" height="13" viewBox="0 0 13 13" fill="none" xmlns="http://www.w3.org/2000/svg">
<path d="M13 11.916L9.66011 8.57607C10.3309 7.68025 10.733 6.57168 10.733 5.36652C10.733 2.40267 8.33036 0 5.36652 0C2.40267 0 0 2.40267 0 5.36652C0 8.33036 2.40267 10.733 5.36652 10.733C6.57168 10.733 7.68025 10.3309 8.57607 9.66011L11.916 13L13 11.916ZM1.53329 5.36652C1.53329 3.25287 3.25287 1.53329 5.36652 1.53329C7.48016 1.53329 9.19974 3.25287 9.19974 5.36652C9.19974 7.48016 7.48016 9.19974 5.36652 9.19974C3.25287 9.19974 1.53329 7.48016 1.53329 5.36652Z" fill="#333333"/>
</svg>
