<svg width="64" height="63" viewBox="0 0 64 63" fill="none" xmlns="http://www.w3.org/2000/svg">
<circle cx="32" cy="31" r="26" stroke="#4F4F4F" stroke-width="2" style="stroke: #4F4F4F; stroke-width: 2;"/>
<circle cx="31.5" cy="5.5" r="4.5" fill="#6FCF97" stroke="#F7FAFE" stroke-width="2" style="fill: #6FCF97; stroke: #F7FAFE; stroke-width: 2;"/>
<circle cx="31.5" cy="5.5" r="1.5" fill="white" style="fill: #fff;"/>
<circle cx="31.5" cy="57.5" r="4.5" fill="#6FCF97" stroke="#F7FAFE" stroke-width="2" style="fill: #6FCF97; stroke: #F7FAFE; stroke-width: 2;"/>
<circle cx="31.5" cy="57.5" r="1.5" fill="white" style="fill: #fff;"/>
<circle cx="5.5" cy="31.5" r="4.5" fill="#6FCF97" stroke="#F7FAFE" stroke-width="2" style="fill: #6FCF97; stroke: #F7FAFE; stroke-width: 2;"/>
<circle cx="5.5" cy="31.5" r="1.5" fill="white" style="fill: #fff;"/>
<circle cx="58.5" cy="31.5" r="4.5" fill="#6FCF97" stroke="#F7FAFE" stroke-width="2" style="fill: #6FCF97; stroke: #F7FAFE; stroke-width: 2;"/>
<circle cx="58.5" cy="31.5" r="1.5" fill="white" style="fill: #fff;"/>
<path d="M32 49.24C42.0737 49.24 50.24 41.0737 50.24 31C50.24 20.9263 42.0737 12.76 32 12.76C21.9263 12.76 13.76 20.9263 13.76 31C13.76 41.0737 21.9263 49.24 32 49.24Z" stroke="#6FCF97" stroke-width="2" stroke-miterlimit="10" stroke-linecap="round" style="stroke: #6FCF97; stroke-width: 2; stroke-miterlimit: 10; stroke-linecap: round;"/>
<path d="M32 49.24C37.0368 49.24 41.12 41.0737 41.12 31C41.12 20.9263 37.0368 12.76 32 12.76C26.9632 12.76 22.88 20.9263 22.88 31C22.88 41.0737 26.9632 49.24 32 49.24Z" stroke="#6FCF97" stroke-width="2" stroke-miterlimit="10" stroke-linecap="round" style="stroke: #6FCF97; stroke-width: 2; stroke-miterlimit: 10; stroke-linecap: round;"/>
<path d="M17.8374 42.7329C21.1822 40.674 26.284 39.36 32 39.36C37.6377 39.36 42.6772 40.6383 46.0228 42.647" stroke="#6FCF97" stroke-width="2" stroke-miterlimit="10" style="stroke: #6FCF97; stroke-width: 2; stroke-miterlimit: 10;"/>
<path d="M46.1626 19.2678C42.8178 21.3259 37.716 22.6399 32 22.6399C26.3631 22.6399 21.3228 21.3616 17.9772 19.3529" stroke="#6FCF97" stroke-width="2" stroke-miterlimit="10" style="stroke: #6FCF97; stroke-width: 2; stroke-miterlimit: 10;"/>
<path d="M13.76 31H50.24" stroke="#6FCF97" stroke-width="2" stroke-miterlimit="10" style="stroke: #6FCF97; stroke-width: 2; stroke-miterlimit: 10;"/>
<path d="M32 12.76V49.24" stroke="#6FCF97" stroke-width="2" stroke-miterlimit="10" style="stroke: #6FCF97; stroke-width: 2; stroke-miterlimit: 10;"/>
</svg>
