<?xml version="1.0" encoding="utf-8"?><svg xmlns="http://www.w3.org/2000/svg" xmlns:xlink="http://www.w3.org/1999/xlink"><symbol viewBox="0 0 18 9" id="icon-accordion" xmlns="http://www.w3.org/2000/svg"><path d="M17.032.771L16.262 0 8.807 7.457 1.355 0 .583.771 8.808 9 17.032.771z"/></symbol><symbol viewBox="0 0 64 63" id="icon-adv-1" xmlns="http://www.w3.org/2000/svg"><circle cx="32" cy="31" r="26" stroke-width="2" stroke="#4f4f4f"/><circle cx="31.5" cy="5.5" r="4.5" stroke-width="2" fill="#6fcf97" stroke="#f7fafe"/><circle cx="31.5" cy="5.5" r="1.5" fill="#fff"/><circle cx="31.5" cy="57.5" r="4.5" stroke-width="2" fill="#6fcf97" stroke="#f7fafe"/><circle cx="31.5" cy="57.5" r="1.5" fill="#fff"/><circle cx="5.5" cy="31.5" r="4.5" stroke-width="2" fill="#6fcf97" stroke="#f7fafe"/><circle cx="5.5" cy="31.5" r="1.5" fill="#fff"/><circle cx="58.5" cy="31.5" r="4.5" stroke-width="2" fill="#6fcf97" stroke="#f7fafe"/><circle cx="58.5" cy="31.5" r="1.5" fill="#fff"/><path d="M32 49.24c10.074 0 18.24-8.166 18.24-18.24 0-10.074-8.166-18.24-18.24-18.24-10.074 0-18.24 8.166-18.24 18.24 0 10.074 8.166 18.24 18.24 18.24z" stroke-width="2" stroke-miterlimit="10" stroke-linecap="round" stroke="#6fcf97"/><path d="M32 49.24c5.037 0 9.12-8.166 9.12-18.24 0-10.074-4.083-18.24-9.12-18.24-5.037 0-9.12 8.166-9.12 18.24 0 10.074 4.083 18.24 9.12 18.24z" stroke-width="2" stroke-miterlimit="10" stroke-linecap="round" stroke="#6fcf97"/><path d="M17.837 42.733C21.182 40.674 26.284 39.36 32 39.36c5.638 0 10.677 1.278 14.023 3.287M46.163 19.268C42.818 21.326 37.716 22.64 32 22.64c-5.637 0-10.677-1.278-14.023-3.287M13.76 31h36.48M32 12.76v36.48" stroke-width="2" stroke-miterlimit="10" stroke="#6fcf97"/></symbol><symbol viewBox="0 0 56 55" id="icon-adv-2" xmlns="http://www.w3.org/2000/svg"><path d="M40 13.5H25.326a1 1 0 0 1-.962-1.275L26 6.5c2-7-12-7-10.5 0l2.023 5.664a1 1 0 0 1-.942 1.336H2a1 1 0 0 0-1 1v15.557a1 1 0 0 0 1.351.936L9 28.5c6.975-2.491 7 12.392.075 11.016a.943.943 0 0 1-.144-.042l-6.538-2.451a1 1 0 0 0-1.35.964l.43 15.042a1 1 0 0 0 .999.971H17.14a1 1 0 0 0 .954-1.298L16 46c-3-7 13-7 10.5 0l-2.094 6.702A1 1 0 0 0 25.36 54H40a1 1 0 0 0 1-1V37.943a1 1 0 0 1 1.351-.936L49 39.5c8 2 8-14 0-11.5l-6.6 2.887a1 1 0 0 1-1.4-.916V14.5a1 1 0 0 0-1-1z" stroke-width="2" stroke="#6fcf97"/></symbol><symbol viewBox="0 0 67 39" id="icon-adv-3" xmlns="http://www.w3.org/2000/svg"><circle cx="43.5" cy="3.5" r="2.5" stroke-width="2" fill="#fff" stroke="#6fcf97"/><circle cx="3.5" cy="3.5" r="2.5" stroke-width="2" fill="#fff" stroke="#6fcf97"/><path d="M8.5 3.5H38" stroke-width="2" stroke="#4f4f4f"/><circle cx="43.5" cy="35.5" r="2.5" stroke-width="2" fill="#fff" stroke="#6fcf97"/><circle cx="3.5" cy="35.5" r="2.5" stroke-width="2" fill="#fff" stroke="#6fcf97"/><path d="M8.5 35.5H38" stroke-width="2" stroke="#4f4f4f"/><circle cx="63.5" cy="19.5" r="2.5" stroke-width="2" fill="#fff" stroke="#6fcf97"/><circle cx="23.5" cy="19.5" r="2.5" stroke-width="2" fill="#fff" stroke="#6fcf97"/><path d="M28.5 19.5H58" stroke-width="2" stroke="#4f4f4f"/></symbol><symbol viewBox="0 0 61 60" id="icon-adv-4" xmlns="http://www.w3.org/2000/svg"><path d="M5.5 36v11.333a2 2 0 0 0 .4 1.2l.5.667A2 2 0 0 0 8 50h3a2 2 0 0 0 2-2V33a2 2 0 0 0-2-2H8a2 2 0 0 0-1.6.8l-.5.667a2 2 0 0 0-.4 1.2V36zm0 0h-2a2 2 0 0 0-2 2v4.833a2 2 0 0 0 .4 1.2l.5.667a2 2 0 0 0 1.6.8h1m4 2V34M55.5 36v11.333a2 2 0 0 1-.4 1.2l-.5.667a2 2 0 0 1-1.6.8h-1m3.5-14v-2.333a2 2 0 0 0-.4-1.2l-.5-.667A2 2 0 0 0 53 31h-3a2 2 0 0 0-2 2v15a2 2 0 0 0 2 2h2m3.5-14h2a2 2 0 0 1 2 2v4.833a2 2 0 0 1-.4 1.2l-.5.667a2 2 0 0 1-1.6.8h-1m-4 2V34m0 16v5a2 2 0 0 1-2 2h-8.5M52 27.5c3.5-32-44-38-43 0" stroke-width="2" stroke="#4f4f4f"/><path d="M47.995 25C48.475 2.01 13.959-2.393 13 24.51" stroke-width="2" stroke="#6fcf97"/><rect x="28" y="55" width="10" height="4" rx="2" stroke-width="2" stroke="#6fcf97"/><path d="M38.671 44.35l-.274.46.232.484.957 1.992-2.41-.498-.454-.094-.365.286A9.455 9.455 0 0 1 30.5 49a9.5 9.5 0 1 1 9.5-9.5c0 1.773-.485 3.43-1.329 4.85z" stroke-width="2" stroke="#6fcf97"/><path fill="#6fcf97" d="M25 36h2v2h-2zM29 36h7v2h-7zM25 41h5v2h-5zM31 41h5v2h-5z"/></symbol><symbol viewBox="0 0 57 43" id="icon-adv-5" xmlns="http://www.w3.org/2000/svg"><rect x="1" y="1" width="55" height="41" rx="4" stroke-width="2" stroke="#4f4f4f"/><circle cx="6.5" cy="6.5" r="1.5" fill="#4f4f4f"/><circle cx="11.5" cy="6.5" r="1.5" fill="#4f4f4f"/><circle cx="16.5" cy="6.5" r="1.5" fill="#4f4f4f"/><path d="M5 11h47" stroke="#000"/><path d="M19.5 29.64c0-.533.14-.927.42-1.18.28-.267.727-.4 1.34-.4.613 0 1.06.133 1.34.4.28.253.42.66.42 1.22 0 1.027-.587 1.54-1.76 1.54s-1.76-.527-1.76-1.58zm0-5.86c0-.533.14-.927.42-1.18.28-.267.727-.4 1.34-.4.613 0 1.06.133 1.34.4.28.253.42.66.42 1.22 0 1.027-.587 1.54-1.76 1.54s-1.76-.527-1.76-1.58zm11.838-5.2l-4.32 15.36h-3.3l4.3-15.36h3.32zm7.227 0l-4.32 15.36h-3.3l4.3-15.36h3.32z" fill="#6fcf97"/></symbol><symbol viewBox="0 0 57 43" id="icon-adv-6" xmlns="http://www.w3.org/2000/svg"><rect x="1" y="1" width="55" height="41" rx="4" stroke-width="2" stroke="#4f4f4f"/><circle cx="6.5" cy="6.5" r="1.5" fill="#4f4f4f"/><circle cx="11.5" cy="6.5" r="1.5" fill="#4f4f4f"/><circle cx="16.5" cy="6.5" r="1.5" fill="#4f4f4f"/><path d="M5 11h47" stroke="#000"/><path stroke-width="2" stroke="#6fcf97" d="M7 17h18v18H7zM31 17h18v7H31zM31 28h7v7h-7zM42 28h7v7h-7z"/></symbol><symbol viewBox="0 0 49 56" id="icon-adv-7" xmlns="http://www.w3.org/2000/svg"><path d="M15.5 12l18 9M15 37.5l18-9" stroke-width="2" stroke="#6fcf97"/><path fill-rule="evenodd" clip-rule="evenodd" d="M8.5 45.755c2.344 0 4.25-1.935 4.25-4.313 0-2.377-1.906-4.312-4.25-4.312-2.343 0-4.249 1.934-4.249 4.312 0 2.379 1.906 4.313 4.25 4.313zm0-7.906c1.954 0 3.542 1.611 3.542 3.593 0 1.983-1.588 3.594-3.541 3.594-1.954 0-3.542-1.611-3.542-3.594 0-1.982 1.588-3.593 3.542-3.593z" fill="#6fcf97"/><path fill-rule="evenodd" clip-rule="evenodd" d="M8.5 33C3.811 33 0 36.82 0 41.626c0 5.031 4.25 10.178 7.35 13.795.01.015.508.579 1.122.579h.055c.614 0 1.112-.564 1.123-.579 3.1-3.617 7.35-8.763 7.35-13.795C17 36.82 13.187 33 8.5 33zm.082 21.478a.853.853 0 0 1-.095.07c-.008-.019-.06-.061-.092-.095-2.596-3.03-6.978-8.146-6.978-12.827 0-3.963 3.178-7.188 7.082-7.188 3.907 0 7.085 3.224 7.085 7.188 0 4.68-4.383 9.796-7.002 12.852z" fill="#4f4f4f"/><path fill-rule="evenodd" clip-rule="evenodd" d="M8.5 12.755c2.344 0 4.25-1.935 4.25-4.313 0-2.377-1.906-4.312-4.25-4.312-2.343 0-4.249 1.934-4.249 4.312 0 2.379 1.906 4.313 4.25 4.313zm0-7.906c1.954 0 3.542 1.611 3.542 3.593 0 1.983-1.588 3.594-3.541 3.594-1.954 0-3.542-1.611-3.542-3.594 0-1.982 1.588-3.593 3.542-3.593z" fill="#6fcf97"/><path fill-rule="evenodd" clip-rule="evenodd" d="M8.5 0C3.811 0 0 3.82 0 8.626c0 5.031 4.25 10.178 7.35 13.795.01.015.508.579 1.122.579h.055c.614 0 1.112-.564 1.123-.579C12.75 18.804 17 13.658 17 8.626 17 3.82 13.187 0 8.5 0zm.082 21.478a.853.853 0 0 1-.095.07c-.008-.019-.06-.061-.092-.095-2.596-3.03-6.978-8.146-6.978-12.827 0-3.963 3.178-7.188 7.082-7.188 3.907 0 7.085 3.225 7.085 7.188 0 4.68-4.383 9.796-7.002 12.852z" fill="#4f4f4f"/><path fill-rule="evenodd" clip-rule="evenodd" d="M40.5 28.755c2.344 0 4.25-1.935 4.25-4.313 0-2.377-1.906-4.312-4.25-4.312-2.343 0-4.249 1.934-4.249 4.312 0 2.379 1.906 4.313 4.25 4.313zm0-7.906c1.954 0 3.542 1.611 3.542 3.593 0 1.983-1.588 3.594-3.541 3.594-1.954 0-3.542-1.611-3.542-3.594 0-1.982 1.588-3.593 3.542-3.593z" fill="#6fcf97"/><path fill-rule="evenodd" clip-rule="evenodd" d="M40.5 16c-4.688 0-8.5 3.82-8.5 8.626 0 5.031 4.25 10.178 7.35 13.795.01.015.508.579 1.122.579h.055c.614 0 1.112-.564 1.123-.579 3.1-3.617 7.35-8.763 7.35-13.795C49 19.82 45.187 16 40.5 16zm.082 21.478a.853.853 0 0 1-.096.07c-.006-.019-.059-.061-.09-.095-2.597-3.03-6.98-8.146-6.98-12.827 0-3.963 3.179-7.189 7.083-7.189 3.907 0 7.084 3.226 7.084 7.19 0 4.68-4.382 9.795-7 12.851z" fill="#4f4f4f"/></symbol><symbol viewBox="0 0 53 57" id="icon-adv-8" xmlns="http://www.w3.org/2000/svg"><path fill-rule="evenodd" clip-rule="evenodd" d="M24.514 3.534a3 3 0 0 1 3.942.02L33.509 8h3.027l-6.759-5.948a5 5 0 0 0-6.57-.032L16.277 8h3.062l5.176-4.466zM6 19.507v-2.641l-4.266 3.68A5 5 0 0 0 0 24.332V51.5a5 5 0 0 0 5 5h42.5a5 5 0 0 0 5-5V24.308a5 5 0 0 0-1.697-3.753L47 17.208v2.664l2.482 2.184a3 3 0 0 1 1.018 2.252V51.5a3 3 0 0 1-3 3H5a3 3 0 0 1-3-3V24.332a3 3 0 0 1 1.04-2.271L6 19.507z" fill="#4f4f4f"/><path d="M5.5 50.5L26 32l21 18.5M35 37l12.5-11m-30 11l-12-10.5" stroke-width="2" stroke="#4f4f4f"/><path d="M8.5 24.5V15a4 4 0 0 1 4-4h28a4 4 0 0 1 4 4v9.5" stroke-width="2" stroke="#6fcf97"/><path d="M15.5 20h22m-22 4.5h22m-22 4h22" stroke="#6fcf97"/></symbol><symbol viewBox="0 0 7 5" id="icon-arrow-down" xmlns="http://www.w3.org/2000/svg"><path d="M6.615 1.1L6.323.808 3.5 3.631.677.808.385 1.1 3.5 4.215 6.615 1.1z"/></symbol><symbol viewBox="0 0 4 7" id="icon-arrow-right" xmlns="http://www.w3.org/2000/svg"><path d="M0 .424L.431 0 4 3.5.431 7 0 6.578 3.135 3.5 0 .424z"/></symbol><symbol viewBox="0 0 4 7" id="icon-breadcrumbs" xmlns="http://www.w3.org/2000/svg"><path d="M.292 0L0 .292l2.823 2.823L0 5.938l.292.292 3.115-3.115L.292 0z"/></symbol><symbol viewBox="0 0 8 6" id="icon-check" xmlns="http://www.w3.org/2000/svg"><path d="M3 6c-.25 0-.5-.1-.7-.3l-2-2c-.4-.4-.4-1 0-1.4.4-.4 1.05-.4 1.4 0L3 3.6 6.3.3c.4-.4 1-.4 1.4 0 .4.4.4 1 0 1.4l-4 4c-.2.2-.45.3-.7.3z"/></symbol><symbol viewBox="0 0 23 23" id="icon-close" xmlns="http://www.w3.org/2000/svg"><path fill-rule="evenodd" clip-rule="evenodd" d="M11.5 23C17.851 23 23 17.851 23 11.5S17.851 0 11.5 0 0 5.149 0 11.5 5.149 23 11.5 23zm0-1C17.299 22 22 17.299 22 11.5S17.299 1 11.5 1 1 5.701 1 11.5 5.701 22 11.5 22zm-4.243-5.55l-.707-.707 4.243-4.243L6.55 7.257l.707-.707 4.243 4.243 4.243-4.243.707.707-4.243 4.243 4.243 4.243-.707.707-4.243-4.243-4.243 4.243z"/></symbol><symbol viewBox="0 0 11.875 11.906" id="icon-error" xmlns="http://www.w3.org/2000/svg"><defs><style>.aocls-1{fill:#f1002c;fill-rule:evenodd;opacity:.6}</style></defs><path id="ao_" data-name="+" class="aocls-1" d="M275.982 641.362l5.243-5.243 5.295 5.294.661-.662-5.294-5.294 5.294-5.294-.661-.662-5.295 5.294-5.243-5.243-.662.662 5.244 5.243-5.244 5.243z" transform="translate(-275.313 -629.5)"/></symbol><symbol viewBox="0 0 45 27" id="icon-mastercard" xmlns="http://www.w3.org/2000/svg"><path d="M9.145 15.403c0 .362.181.543.543.543.634 0 .996-.543 1.087-1.359h-.363c-.814 0-1.267.272-1.267.816zM32.324 15.403c0 .362.181.543.543.543.634 0 .996-.543 1.087-1.359h-.362c-.906 0-1.268.272-1.268.816zM21.278 12.685c-.453 0-.815.362-.906.996h1.63c0-.181.181-.996-.724-.996zM40.926 12.866c-.634 0-1.178.815-1.178 1.902 0 .725.272 1.088.725 1.088.724 0 1.177-.816 1.177-1.903.09-.725-.181-1.087-.724-1.087z"/><path d="M31.509 0c-3.44 0-6.61 1.268-9.054 3.443C20.1 1.268 16.932 0 13.49 0 6.066 0 0 6.07 0 13.5S6.066 27 13.491 27c3.44 0 6.61-1.268 8.964-3.443C24.809 25.732 27.978 27 31.509 27 38.934 27 45 20.93 45 13.5S38.934 0 31.509 0zM5.704 17.124l.815-5.255-1.901 5.255h-.996l-.09-5.255-.906 5.255H1.268l1.177-6.886h2.082l.09 4.259 1.45-4.259H8.33l-1.177 6.886H5.704zm4.89 0v-.543c-.363.453-.906.634-1.54.634-.815 0-1.358-.634-1.358-1.54 0-1.36.906-2.175 2.535-2.175h.634c.09-.181.09-.272.09-.362 0-.363-.27-.544-.905-.544-.724 0-1.267.181-1.539.272 0-.09.181-1.269.181-1.269.724-.18 1.177-.271 1.72-.271 1.268 0 1.902.543 1.902 1.63 0 .272 0 .635-.09 1.088-.091.815-.363 2.537-.453 2.99-.182.09-1.177.09-1.177.09zm4.346-3.352c.724.362.996.815.996 1.54 0 1.269-.725 1.903-2.264 1.903-.905 0-1.177-.09-1.54-.181 0-.091.182-1.269.182-1.269.453.181.905.181 1.358.181.543 0 .815-.18.815-.543 0-.272-.09-.363-.724-.635-.815-.362-1.087-.815-1.087-1.54 0-.996.543-1.902 2.173-1.902.362 0 .905.09 1.268.09l-.181 1.269c-.363-.091-.725-.091-1.087-.091-.453 0-.724.181-.724.453.09.362.18.453.815.725zm3.169 2.084c.18 0 .271 0 .362-.09l-.181 1.268c-.362.09-.725.18-1.087.18-.724 0-1.177-.452-1.177-1.268 0-.271.09-.906.181-1.45l.634-3.805h1.449l-.181.816h.724l-.181 1.359h-.725c-.18 1.087-.452 2.356-.452 2.537.18.271.362.453.634.453zm3.44.09c.544 0 .996-.09 1.54-.362l-.272 1.359c-.543.181-.996.181-1.54.181-1.63 0-2.444-.815-2.444-2.446 0-1.903 1.087-3.353 2.535-3.353 1.177 0 1.992.816 1.992 1.994 0 .453-.09.815-.181 1.359h-2.897c-.09.906.452 1.268 1.267 1.268zm3.26 1.178H23.36l.09-.362c.272-1.722.544-3.443.725-5.165h1.358c0 .272-.09.544-.09.816.452-.635.814-.997 1.448-.906-.18.271-.452.906-.543 1.63-.905-.09-.996.544-1.54 3.987zm5.613-.09c-.543.18-.905.18-1.267.18-1.54 0-2.535-1.177-2.535-2.99 0-2.446 1.358-4.167 3.35-4.167.634 0 1.358.272 1.63.362l-.272 1.45c-.543-.272-.905-.362-1.268-.362-1.086 0-1.901 1.087-1.901 2.537 0 .996.543 1.63 1.358 1.63.362 0 .724-.09 1.268-.362l-.363 1.722zm4.528.09h-1.177v-.543c-.363.453-.906.634-1.54.634-.814 0-1.358-.634-1.358-1.54 0-1.36.906-2.175 2.535-2.175h.634c.09-.181.09-.272.09-.362 0-.363-.27-.544-.905-.544-.724 0-1.267.181-1.539.272 0-.09.181-1.269.181-1.269.725-.18 1.177-.271 1.72-.271 1.268 0 1.902.543 1.902 1.63 0 .272 0 .635-.09 1.088-.182.906-.453 2.627-.453 3.08zm1.992 0h-1.449l.09-.362c.272-1.722.544-3.443.725-5.165h1.358c0 .272-.09.544-.09.816.452-.635.814-.997 1.448-.906-.181.271-.453.906-.543 1.63-.906-.09-1.087.544-1.54 3.987zm4.346 0l.09-.543c-.362.453-.815.634-1.358.634-1.086 0-1.81-.906-1.81-2.356 0-1.812 1.086-3.443 2.353-3.443.544 0 .996.272 1.358.725l.363-1.993h1.448l-1.086 6.886h-1.358v.09z"/></symbol><symbol viewBox="0 0 14 24" id="icon-next" xmlns="http://www.w3.org/2000/svg"><path d="M0 1.455L1.51 0 14 12 1.51 24 0 22.552 10.974 12 0 1.455z"/></symbol><symbol viewBox="0 0 19 11" id="icon-next-vertical" xmlns="http://www.w3.org/2000/svg"><path d="M17.848 0L19 1.186 9.5 11 0 1.186 1.146 0 9.5 8.622 17.848 0z"/></symbol><symbol viewBox="0 0 6 11" id="icon-pagination-next" xmlns="http://www.w3.org/2000/svg"><path d="M.514 0L0 .516 4.971 5.5 0 10.484.514 11 6 5.5.514 0z"/></symbol><symbol viewBox="0 0 6 11" id="icon-pagination-prev" xmlns="http://www.w3.org/2000/svg"><path d="M5.486 0L6 .516 1.029 5.5 6 10.484 5.486 11 0 5.5 5.486 0z"/></symbol><symbol viewBox="0 0 49 15" id="icon-paypal" xmlns="http://www.w3.org/2000/svg"><path fill-rule="evenodd" clip-rule="evenodd" d="M37.795 2.308c-1.209 0-2.166.364-2.898.532l-.225 2.094c.365-.197 1.518-.564 2.479-.596.957-.035 1.518.195 1.322 1.13-2.844 0-4.76.666-5.155 2.758-.563 3.589 2.902 3.493 4.278 1.93l-.165.862h2.534l1.098-5.719c.452-2.424-1.491-3.024-3.268-2.991zm.169 5.848c-.141.768-.678 1.101-1.322 1.131-.566.033-1.071-.527-.707-1.193.284-.568 1.072-.697 1.553-.697h.619c-.057.263-.084.495-.143.759zM43.228.048l-2.092 10.969h2.576L45.832.048h-2.604zM31.402.08h-4.713l-2.09 10.938h2.738l.706-3.621h1.95c1.918 0 3.5-1.334 3.922-3.593.483-2.56-1.156-3.724-2.513-3.724zm-.085 3.724c-.169.831-.904 1.495-1.606 1.495h-1.27l.564-2.991h1.355c.704 0 1.126.665.957 1.496zM13.115 2.308c-1.195 0-2.143.364-2.84.532l-.22 2.094c.334-.197 1.476-.564 2.42-.596.945-.035 1.501.195 1.334 1.13-2.81 0-4.702.666-5.087 2.758-.561 3.589 2.865 3.493 4.197 1.93l-.166.862h2.531l1.083-5.719c.446-2.424-1.5-3.024-3.252-2.991zm.195 5.848c-.142.768-.697 1.101-1.339 1.131-.551.033-1.025-.527-.662-1.193.278-.568 1.053-.697 1.5-.697h.64c-.056.263-.112.495-.139.759zM17.472 2.465h2.529l.409 5.092 2.474-5.092h2.618l-6.02 12.193h-2.829l1.851-3.586-1.032-8.607zM6.817.08h-4.72L0 11.017h2.774l.679-3.621h1.98c1.895 0 3.481-1.334 3.906-3.593C9.819 1.244 8.205.08 6.817.08zm-.084 3.724c-.167.831-.875 1.495-1.583 1.495h-1.3l.592-2.991H5.8c.679 0 1.134.665.933 1.496z"/><path d="M46.386 1.465V.172h-.424V0h1.021v.172h-.427v1.293h-.17zM47.156 1.465V0h.254l.303 1.037c.03.096.049.167.063.213l.069-.23.311-1.02h.227v1.465h-.164V.236l-.373 1.229h-.158l-.37-1.248v1.248h-.162z"/></symbol><symbol viewBox="0 0 14 24" id="icon-prev" xmlns="http://www.w3.org/2000/svg"><path d="M14 1.455L12.49 0 0 12l12.49 12L14 22.552 3.026 12 14 1.455z"/></symbol><symbol viewBox="0 0 19 11" id="icon-prev-vertical" xmlns="http://www.w3.org/2000/svg"><path d="M17.848 11L19 9.814 9.5 0 0 9.814 1.146 11 9.5 2.378 17.848 11z"/></symbol><symbol viewBox="0 0 13 13" id="icon-search" xmlns="http://www.w3.org/2000/svg"><path d="M13 11.916l-3.34-3.34a5.335 5.335 0 0 0 1.073-3.21 5.366 5.366 0 1 0-5.366 5.367 5.335 5.335 0 0 0 3.21-1.073L11.915 13 13 11.916zM1.533 5.366a3.838 3.838 0 0 1 3.834-3.833A3.838 3.838 0 0 1 9.2 5.367 3.838 3.838 0 0 1 5.367 9.2a3.838 3.838 0 0 1-3.834-3.833z"/></symbol><symbol viewBox="0 0 14 15" id="icon-signin" xmlns="http://www.w3.org/2000/svg"><path d="M9.325 8.413a4.563 4.563 0 0 0 2.125-3.868C11.45 2.039 9.453 0 7 0 4.547 0 2.55 2.039 2.55 4.545c0 1.635.853 3.067 2.125 3.868C1.928 9.043 0 10.762 0 12.843 0 14.546 4.4 15 7 15c2.6 0 7-.454 7-2.157 0-2.081-1.928-3.8-4.675-4.43zM3.467 4.545C3.467 2.555 5.052.938 7 .938s3.533 1.618 3.533 3.607c0 1.99-1.585 3.607-3.533 3.607S3.467 6.534 3.467 4.545zM7 14.063c-3.737 0-5.974-.807-6.083-1.224C.92 10.772 3.647 9.09 7 9.09c3.352 0 6.08 1.682 6.083 3.75-.106.416-2.344 1.223-6.083 1.223z"/></symbol><symbol viewBox="0 0 11 11" id="icon-target" xmlns="http://www.w3.org/2000/svg"><path d="M9.292 9.292H1.708V1.708H5.5V.625H1.708C1.11.625.625 1.11.625 1.708v7.584c0 .598.485 1.083 1.083 1.083h7.584c.598 0 1.083-.485 1.083-1.083V5.5H9.292v3.792zM6.583.625v1.083h1.942L3.201 7.033l.766.766 5.325-5.324v1.942h1.083V.625H6.583z"/></symbol><symbol viewBox="0 0 56 50" id="icon-trial-01" xmlns="http://www.w3.org/2000/svg"><path d="M29.944 8.486l-26.94 26.62a1 1 0 0 0-.288.584l-1.55 12.024a1 1 0 0 0 1.12 1.12l12.016-1.552a1 1 0 0 0 .58-.285L41.92 19.936M29.944 8.486l6.882-6.8a1 1 0 0 1 1.397-.009l10.444 10.066a1 1 0 0 1 .013 1.427l-6.76 6.766M29.944 8.486l11.976 11.45m-26.4 14.532l13.64-13.211" stroke-width="2" stroke="#4f4f4f"/><path d="M56 49H23.88" stroke-width="2" stroke="#6fcf97"/></symbol><symbol viewBox="0 0 60 60" id="icon-trial-02" xmlns="http://www.w3.org/2000/svg"><path d="M5 35.798v11.333a2 2 0 0 0 .4 1.2l.5.667a2 2 0 0 0 1.6.8h3a2 2 0 0 0 2-2v-15a2 2 0 0 0-2-2h-3a2 2 0 0 0-1.6.8l-.5.667a2 2 0 0 0-.4 1.2v2.333zm0 0H3a2 2 0 0 0-2 2v4.833a2 2 0 0 0 .4 1.2l.5.667a2 2 0 0 0 1.6.8h1m4 2v-13.5M55 35.798v11.333a2 2 0 0 1-.4 1.2l-.5.667a2 2 0 0 1-1.6.8h-1m3.5-14v-2.333a2 2 0 0 0-.4-1.2l-.5-.667a2 2 0 0 0-1.6-.8h-3a2 2 0 0 0-2 2v15a2 2 0 0 0 2 2h2m3.5-14h2a2 2 0 0 1 2 2v4.833a2 2 0 0 1-.4 1.2l-.5.667a2 2 0 0 1-1.6.8h-1m-4 2v-13.5m0 16v5a2 2 0 0 1-2 2H41M51.5 27.298c3.5-32-44-38-43 0" stroke-width="2" stroke="#4f4f4f"/><path d="M47.495 24.798c.48-22.99-34.036-27.393-34.995-.49" stroke-width="2" stroke="#6fcf97"/><rect x="27.5" y="54.798" width="10" height="4" rx="2" stroke-width="2" stroke="#6fcf97"/><path d="M38.171 44.147l-.274.461.232.484.957 1.992-2.41-.498-.454-.094-.365.286A9.455 9.455 0 0 1 30 48.798a9.5 9.5 0 1 1 9.5-9.5c0 1.773-.485 3.43-1.329 4.85z" stroke-width="2" stroke="#6fcf97"/><path fill="#6fcf97" d="M24.5 35.798h2v2h-2zM28.5 35.798h7v2h-7zM24.5 40.798h5v2h-5zM30.5 40.798h5v2h-5z"/></symbol><symbol viewBox="0 0 47 58" id="icon-trial-03" xmlns="http://www.w3.org/2000/svg"><path d="M19.88 54.5c2.72 1.345 3.479 1.981 7.328 1.521a.997.997 0 0 0 .327-.099c4.73-2.391 6.452-4.5 9.547-8.077a.999.999 0 0 1 .755-.345h5.316c.434 0 .819-.28.948-.693 2.046-6.547 2.177-10.618.016-17.565a1 1 0 0 0-1.014-.695c-1.98.108-3.684.103-6.693-.024a1.007 1.007 0 0 1-.809-.473c-2.318-3.709-3.934-5.754-7.22-9.05-5.269-4.865-7.423-7.911-8.97-11.92a1.018 1.018 0 0 1-.047-.166C18.66 3.384 17.84 2.23 15.38 2c-2.584-.095-4 1-4 5 0 3.791 4.491 9.38 5.812 16.764.113.63-.422 1.176-1.061 1.132C1.642 23.884-2.442 30.692 3.882 37.5m15.999 17c-4.5 2.5-10 1-9-4.5m9 4.5l5.276-2.435a1 1 0 0 0 .328-1.572L22.381 47m-11.5 3c-4-.5-5.897-2.32-4.5-5.5m4.5 5.5c4.271.337 6.422-.334 11.5-3m-16-2.5c-4-1-5.08-3.89-2.5-7m2.5 7c5 .5 9.285-.194 15-3m-17.5-4c4.338 1.95 7.55 1.41 14.5-2m4 11.5l2.203-1.26a1 1 0 0 0 .118-1.657L21.381 41.5m0 0l1.476-1.181a1 1 0 0 0-.036-1.59L18.38 35.5m0 0l1.482-.89c.532-.318.65-1.043.222-1.493-3-3.159-5.387-3.587-10.204-1.617-1.39.473-2 .5-3 .5" stroke-width="2" stroke-linecap="round" stroke="#6fcf97"/></symbol><symbol viewBox="0 0 12 12" id="icon-user" xmlns="http://www.w3.org/2000/svg"><path d="M6 7.2c1.654 0 2.995-1.612 2.995-3.6S7.655 0 6 0C4.346 0 3.005 1.612 3.005 3.6S4.345 7.2 6 7.2zM11.87 10.26c-.538-1.08-1.557-1.98-2.875-2.52-.36-.12-.779-.12-1.078.06-.6.36-1.198.54-1.917.54a3.56 3.56 0 0 1-1.917-.54c-.3-.12-.719-.18-1.078 0C1.687 8.34.668 9.24.129 10.32-.29 11.1.37 12 1.268 12h9.464c.9 0 1.558-.9 1.139-1.74z"/></symbol><symbol viewBox="0 0 14.875 10.875" id="icon-valid" xmlns="http://www.w3.org/2000/svg"><defs><style>.becls-1{fill:#2cb655;fill-rule:evenodd}</style></defs><path id="be_copy" data-name="+ copy" class="becls-1" d="M276.982 467.362l10.2-10.2-.661-.662-9.295 9.294-4.243-4.243-.662.662 4.244 4.243z" transform="translate(-272.313 -456.5)"/></symbol><symbol viewBox="0 0 65 66" id="icon-values-01" xmlns="http://www.w3.org/2000/svg"><path d="M12.5 13L2 27.5M12.5 13L22 27.5M12.5 13h20.25M2 27.5l30 37-10-37m-20 0h61m-41 0L32.75 13M53 13L42.5 27.5M53 13l10 14.5M53 13H32.75m9.75 14.5L32 65l31-37.5m-20.5 0L32.75 13" stroke-width="2" stroke="#4f4f4f"/><path d="M59 0v4m0 7V7m-1.5-1.5H54m6.5 0H64" stroke-width="2" stroke="#6fcf97"/></symbol><symbol viewBox="0 0 57 58" id="icon-values-02" xmlns="http://www.w3.org/2000/svg"><circle cx="28" cy="29.5" r="17.5" stroke-width="2" stroke="#4f4f4f"/><path d="M6.322 45.355l1.973-3.946a1 1 0 0 0 .029-.831l-2.162-5.19a1 1 0 0 0-.552-.544l-3.981-1.593A1 1 0 0 1 1 32.324v-6.365a1 1 0 0 1 .67-.944l3.893-1.361a1 1 0 0 0 .603-.585l2.193-5.702a1 1 0 0 0-.005-.73l-1.61-4.024a1 1 0 0 1 .222-1.078L10.99 7.51a1 1 0 0 1 1.155-.188l3.96 1.98a1 1 0 0 0 .807.04l5.615-2.16a1 1 0 0 0 .606-.67L24.3 2.237a1 1 0 0 1 .965-.737H31.3a1 1 0 0 1 .94.658l1.61 4.43a1 1 0 0 0 .555.58l5.172 2.156a1 1 0 0 0 .832-.029l3.978-1.989a1 1 0 0 1 1.12.155l4.433 4.03a1 1 0 0 1 .221 1.187l-1.964 3.927a1 1 0 0 0-.039.807l2.17 5.64a1 1 0 0 0 .63.594l4.345 1.38a1 1 0 0 1 .697.954v6.32a1 1 0 0 1-.658.94l-4.43 1.61a1 1 0 0 0-.58.555l-2.156 5.172a1 1 0 0 0 .029.832l1.973 3.946a1 1 0 0 1-.188 1.155l-4.48 4.48a1 1 0 0 1-1.155.188l-3.946-1.973a1 1 0 0 0-.831-.029l-5.19 2.162a1 1 0 0 0-.544.552l-1.593 3.981a1 1 0 0 1-.928.629h-6.079a1 1 0 0 1-.958-.713l-1.145-3.817a1 1 0 0 0-.599-.646l-5.63-2.166a1 1 0 0 0-.806.04l-3.961 1.98a1 1 0 0 1-1.155-.188l-4.48-4.48a1 1 0 0 1-.188-1.155z" stroke-width="2" stroke="#4f4f4f"/><path d="M30.5 22l.39-3.9a1 1 0 0 0-.995-1.1h-4.79a1 1 0 0 0-.995 1.1l.3 3a1 1 0 0 0 .995.9H29.5m1 0l5.861 8.303a1 1 0 0 1 .173.435l.237 1.66a1 1 0 0 1-1.306 1.09l-1.241-.413a1 1 0 0 1-.39-.242L31 30m-.5-8h-1m1.5 8l-1.5-8m1.5 8l1.388 6.016a1 1 0 0 1-.206.865l-3.914 4.697a1 1 0 0 1-1.536 0l-3.923-4.707a1 1 0 0 1-.21-.844L25 24.5" stroke-width="1.5" stroke="#6fcf97"/></symbol><symbol viewBox="0 0 63 52" id="icon-values-03" xmlns="http://www.w3.org/2000/svg"><path d="M11 51.5V39.35c0-.226.082-.444.207-.633.535-.804.445-1.318 1.793-2.217 1.402-.935 11.546-4.055 12.86-4.457a.978.978 0 0 1 .289-.043h10.196c.103 0 .201.015.3.046 1.3.415 11.024 3.522 13.355 4.454 2.245.898 1.44 1.815 1.82 2.7.089.209.18.424.18.65V51.5M24 13.5c2.386.398 6.355-3.318 9.388-5.357.63-.424 1.153.2.712.818v0c-.406.568.1 1.439.777 1.609 2.021.507 3.418 2.349 3.623 3.93" stroke-width="2" stroke="#4f4f4f"/><path d="M27 51.5l2-9-1-5m0 0l3-2 3.5 2m-6.5 0L25.5 39V28.5l-3.5-6c-3-.5-3-5.5-.5-5.5-2-9.5 2-15.5 9.5-15.5C40 1.5 42.5 9 41 17c2.5 0 1.5 5.5-1 5.5l-3 6V39l-2.5-1.5m0 0l-1 5 2 9" stroke-width="2" stroke="#4f4f4f"/><circle cx="10.5" cy="22" r="4" stroke-width="2" stroke="#6fcf97"/><path d="M15.5 30.084H5a4 4 0 0 0-4 4V44.5m4.5-7v7" stroke-width="2" stroke="#6fcf97"/><circle r="4" transform="matrix(-1 0 0 1 52.5 22)" stroke-width="2" stroke="#6fcf97"/><path d="M47.5 30.084H58a4 4 0 0 1 4 4V44.5m-4.5-7v7" stroke-width="2" stroke="#6fcf97"/></symbol><symbol viewBox="0 0 49 16" id="icon-visa" xmlns="http://www.w3.org/2000/svg"><path d="M20.2.3l-3.3 15.2h4L24.1.3h-3.9zM14.4.3l-4.1 10.3-1.7-8.8C8.4.8 7.6.3 6.8.3H.1L0 .7c1.4.3 2.9.8 3.9 1.3.6.3.7.6.9 1.3l3.1 12.1h4.2L18.5.2h-4.1v.1zM45.5.3h-3.4c-.8 0-1.4.4-1.7 1.1l-5.9 14.1h4.1l.8-2.3h5l.5 2.3h3.6L45.5.3zm-4.8 9.8l2.1-5.7 1.2 5.7h-3.3zM29.3 4.5c0-.5.5-1.1 1.7-1.3.6-.1 2.1-.1 3.9.7l.7-3.2c-.9-.3-2.2-.7-3.7-.7-3.9 0-6.6 2.1-6.6 5 0 2.2 2 3.4 3.4 4.1 1.5.7 2 1.2 2 1.9 0 1-1.2 1.5-2.4 1.5-2 0-3.1-.5-4-1l-.7 3.3c.9.4 2.6.8 4.4.8 4.1 0 6.8-2 6.8-5.2 0-3.8-5.6-4.1-5.5-5.9z"/></symbol><symbol viewBox="0 0 34 28" id="icon-write" xmlns="http://www.w3.org/2000/svg"><path d="M27 11c7.235.482 7.49 9.805 1.216 12.259-.416.162-.716.549-.716.995v1.116c0 .92-1.137 1.351-1.747.664l-1.932-2.173a1.03 1.03 0 0 0-.805-.34c-2.997.1-4.406-.568-6.016-3.021M8 1h9.912c.059 0 .119.005.176.016 8.373 1.566 8.876 14.364.045 16.946a.969.969 0 0 1-.27.038h-3.382a1 1 0 0 0-.781.375l-3.92 4.899c-.59.738-1.78.32-1.78-.625V18.9c0-.511-.39-.934-.89-1.04C-1.427 16.043-.225 1.968 8 1zM7 6.5h11m-11 3h11m-11 3h6" stroke-width="1.5" stroke-linecap="round"/></symbol></svg>