<svg width="57" height="58" viewBox="0 0 57 58" fill="none" xmlns="http://www.w3.org/2000/svg">
<circle cx="28" cy="29.5" r="17.5" stroke="#4F4F4F" stroke-width="2" style="stroke: #4F4F4F; stroke-width: 2;"/>
<path d="M6.32233 45.3554L8.29532 41.4094C8.42529 41.1494 8.43575 40.8458 8.32397 40.5775L6.16159 35.3878C6.05824 35.1398 5.85941 34.9438 5.60991 34.844L1.62861 33.2515C1.24895 33.0996 1 32.7319 1 32.323V25.9582C1 25.5332 1.26868 25.1546 1.6699 25.0143L5.56296 23.6528C5.84019 23.5559 6.06078 23.342 6.1662 23.0679L8.35918 17.3661C8.4497 17.1308 8.44796 16.8699 8.35431 16.6358L6.74489 12.6122C6.59633 12.2408 6.6834 11.8166 6.96626 11.5337L10.9903 7.50965C11.2947 7.20529 11.7597 7.12984 12.1447 7.32233L16.1055 9.30274C16.3568 9.42841 16.6494 9.44253 16.9117 9.34166L22.5274 7.18176C22.8245 7.06749 23.0495 6.81862 23.1332 6.51153L24.299 2.23688C24.4177 1.80182 24.8128 1.5 25.2638 1.5H31.2996C31.7201 1.5 32.0957 1.76307 32.2394 2.15826L33.85 6.58749C33.9456 6.85039 34.1469 7.06123 34.4052 7.16882L39.5775 9.32397C39.8458 9.43575 40.1494 9.42529 40.4094 9.29532L44.3871 7.30644C44.7565 7.12174 45.2014 7.18312 45.507 7.46092L49.9395 11.4904C50.271 11.7918 50.3616 12.2769 50.1612 12.6776L48.1973 16.6055C48.0716 16.8568 48.0575 17.1494 48.1583 17.4117L50.3275 23.0516C50.4365 23.335 50.6685 23.5536 50.9579 23.6456L55.303 25.0269C55.7181 25.1589 56 25.5444 56 25.9799V32.2996C56 32.7201 55.7369 33.0957 55.3417 33.2394L50.9125 34.85C50.6496 34.9456 50.4388 35.147 50.3312 35.4052L48.176 40.5775C48.0643 40.8458 48.0747 41.1494 48.2047 41.4094L50.1777 45.3554C50.3702 45.7403 50.2947 46.2053 49.9903 46.5097L45.5097 50.9904C45.2053 51.2947 44.7403 51.3702 44.3553 51.1777L40.4094 49.2047C40.1494 49.0747 39.8458 49.0643 39.5775 49.176L34.3878 51.3384C34.1398 51.4418 33.9438 51.6406 33.844 51.8901L32.2514 55.8714C32.0996 56.2511 31.7319 56.5 31.323 56.5H25.244C24.8024 56.5 24.4131 56.2104 24.2862 55.7874L23.141 51.9699C23.0521 51.6735 22.8309 51.435 22.5421 51.3239L16.9117 49.1584C16.6494 49.0575 16.3568 49.0716 16.1055 49.1973L12.1447 51.1777C11.7597 51.3702 11.2947 51.2947 10.9903 50.9904L6.50965 46.5097C6.20529 46.2053 6.12984 45.7403 6.32233 45.3554Z" stroke="#4F4F4F" stroke-width="2" style="stroke: #4F4F4F; stroke-width: 2;"/>
<path d="M30.5 22L30.89 18.0995C30.9489 17.5108 30.4866 17 29.895 17H25.105C24.5134 17 24.0511 17.5108 24.11 18.0995L24.41 21.0995C24.4611 21.6107 24.8912 22 25.405 22H29.5M30.5 22L36.3611 30.3032C36.4524 30.4326 36.5117 30.5817 36.5341 30.7385L36.7712 32.3982C36.8763 33.1341 36.1702 33.7234 35.465 33.4883L34.224 33.0747C34.0767 33.0256 33.9428 32.9428 33.8331 32.8331L31 30M30.5 22H29.5M31 30L29.5 22M31 30L32.3884 36.0163C32.4587 36.321 32.3824 36.6411 32.1822 36.8813L28.2682 41.5781C27.8684 42.0579 27.1316 42.0579 26.7318 41.5781L22.8093 36.8712C22.6139 36.6367 22.5363 36.3258 22.5985 36.027L25 24.5" stroke="#6FCF97" stroke-width="1.5" style="stroke: #6FCF97; stroke-width: 1.5;"/>
</svg>
