<svg width="63" height="52" viewBox="0 0 63 52" fill="none" xmlns="http://www.w3.org/2000/svg">
<path d="M11 51.5V39.3508C11 39.1237 11.0815 38.9057 11.2073 38.7167C11.7424 37.9129 11.6517 37.3989 13 36.5C14.4024 35.5651 24.5459 32.4449 25.8599 32.0428C25.9542 32.0139 26.0501 32 26.1488 32H36.3447C36.4476 32 36.5462 32.0147 36.6442 32.0459C37.9454 32.4608 47.6687 35.5675 50 36.5C52.2453 37.3981 51.4408 38.3153 51.8193 39.2002C51.9086 39.4089 52 39.6237 52 39.8508V51.5" stroke="#4F4F4F" stroke-width="2" style="stroke: #4F4F4F; stroke-width: 2;"/>
<path d="M24 13.5C26.3864 13.8977 30.3548 10.1824 33.3883 8.14266C34.018 7.71923 34.5406 8.34322 34.0995 8.96071V8.96071C33.6938 9.52875 34.2003 10.3998 34.8773 10.5697C36.898 11.077 38.2946 12.919 38.5 14.5" stroke="#4F4F4F" stroke-width="2" style="stroke: #4F4F4F; stroke-width: 2;"/>
<path d="M27.0003 51.5L29.0003 42.5L28.0003 37.5M28.0003 37.5L31.0003 35.5L34.5003 37.5M28.0003 37.5L25.5003 39V28.5L22.0003 22.5C19.0007 22 19.0001 17 21.5003 17C19.5 7.5 23.5 1.5 31.0003 1.5C40.0003 1.5 42.5 9 41.0003 17C43.5 17 42.5 22.5 40.0003 22.5L37.0003 28.5V39L34.5003 37.5M34.5003 37.5L33.5003 42.5L35.5003 51.5" stroke="#4F4F4F" stroke-width="2" style="stroke: #4F4F4F; stroke-width: 2;"/>
<circle cx="10.5" cy="22" r="4" stroke="#6FCF97" stroke-width="2" style="stroke: #6FCF97; stroke-width: 2;"/>
<path d="M15.5 30.0835H5C2.79086 30.0835 1 31.8744 1 34.0835V44.5M5.5 37.5V44.5" stroke="#6FCF97" stroke-width="2" style="stroke: #6FCF97; stroke-width: 2;"/>
<circle r="4" transform="matrix(-1 0 0 1 52.5 22)" stroke="#6FCF97" stroke-width="2" style="stroke: #6FCF97; stroke-width: 2;"/>
<path d="M47.5 30.0835H58C60.2091 30.0835 62 31.8744 62 34.0835V44.5M57.5 37.5V44.5" stroke="#6FCF97" stroke-width="2" style="stroke: #6FCF97; stroke-width: 2;"/>
</svg>
