<svg width="53" height="57" viewBox="0 0 53 57" fill="none" xmlns="http://www.w3.org/2000/svg">
<path fill-rule="evenodd" clip-rule="evenodd" d="M24.5143 3.53391C25.6487 2.55527 27.3311 2.56351 28.4559 3.55326L33.509 8.00004H36.5364L29.7771 2.05186C27.9026 0.402259 25.0984 0.388526 23.2078 2.01963L16.276 8.00004H19.3376L24.5143 3.53391ZM6 19.5071V16.8656L1.73383 20.5462C0.632935 21.496 0 22.878 0 24.332V51.5C0 54.2615 2.23859 56.5 5 56.5H47.5C50.2614 56.5 52.5 54.2615 52.5 51.5V24.3083C52.5 22.8714 51.8818 21.504 50.8031 20.5547L47 17.208V19.8721L49.4819 22.0562C50.1291 22.6257 50.5 23.4461 50.5 24.3083V51.5C50.5 53.1569 49.1569 54.5 47.5 54.5H5C3.34314 54.5 2 53.1569 2 51.5V24.332C2 23.4596 2.37976 22.6304 3.04031 22.0605L6 19.5071Z" fill="#4F4F4F" style="fill: #4F4F4F;"/>
<path d="M5.5 50.5L26 32L47 50.5M35 37L47.5 26M17.5 37L5.5 26.5" stroke="#4F4F4F" stroke-width="2" style="stroke: #4F4F4F; stroke-width: 2;"/>
<path d="M8.5 24.5V15C8.5 12.7909 10.2909 11 12.5 11H40.5C42.7091 11 44.5 12.7909 44.5 15V24.5" stroke="#6FCF97" stroke-width="2" style="stroke: #6FCF97; stroke-width: 2;"/>
<path d="M15.5 20H37.5M15.5 24.5H37.5M15.5 28.5H37.5" stroke="#6FCF97" style="stroke: #6FCF97;"/>
</svg>
