<svg width="60" height="60" viewBox="0 0 60 60" fill="none" xmlns="http://www.w3.org/2000/svg">
<path d="M5 35.798V47.1314C5 47.5641 5.14036 47.9852 5.4 48.3314L5.9 48.998C6.27771 49.5016 6.87049 49.798 7.5 49.798H10.5C11.6046 49.798 12.5 48.9026 12.5 47.798V32.798C12.5 31.6935 11.6046 30.798 10.5 30.798H7.5C6.87049 30.798 6.27771 31.0944 5.9 31.598L5.4 32.2647C5.14036 32.6109 5 33.032 5 33.4647V35.798ZM5 35.798H3C1.89543 35.798 1 36.6935 1 37.798V42.6314C1 43.0641 1.14036 43.4852 1.4 43.8314L1.9 44.498C2.27771 45.0016 2.87049 45.298 3.5 45.298H4.5M8.5 47.298V33.798" stroke="#4F4F4F" stroke-width="2" style="stroke: #4F4F4F; stroke-width: 2;"/>
<path d="M55 35.798V47.1314C55 47.5641 54.8596 47.9852 54.6 48.3314L54.1 48.998C53.7223 49.5016 53.1295 49.798 52.5 49.798H51.5M55 35.798V33.4647C55 33.032 54.8596 32.6109 54.6 32.2647L54.1 31.598C53.7223 31.0944 53.1295 30.798 52.5 30.798H49.5C48.3954 30.798 47.5 31.6935 47.5 32.798V47.798C47.5 48.9026 48.3954 49.798 49.5 49.798H51.5M55 35.798H57C58.1046 35.798 59 36.6935 59 37.798V42.6314C59 43.0641 58.8596 43.4852 58.6 43.8314L58.1 44.498C57.7223 45.0016 57.1295 45.298 56.5 45.298H55.5M51.5 47.298V33.798M51.5 49.798V54.798C51.5 55.9026 50.6046 56.798 49.5 56.798H41" stroke="#4F4F4F" stroke-width="2" style="stroke: #4F4F4F; stroke-width: 2;"/>
<path d="M51.4999 27.298C55.0002 -4.70196 7.5002 -10.702 8.49994 27.298" stroke="#4F4F4F" stroke-width="2" style="stroke: #4F4F4F; stroke-width: 2;"/>
<path d="M47.495 24.798C47.9747 1.8072 13.4588 -2.59531 12.5 24.3088" stroke="#6FCF97" stroke-width="2" style="stroke: #6FCF97; stroke-width: 2;"/>
<rect x="27.5" y="54.798" width="10" height="4" rx="2" stroke="#6FCF97" stroke-width="2" style="stroke: #6FCF97; stroke-width: 2;"/>
<path d="M38.171 44.1474L37.8967 44.6084L38.1291 45.0918L39.0864 47.0836L36.6764 46.5858L36.2221 46.492L35.8571 46.7782C34.2431 48.0439 32.211 48.798 30 48.798C24.7533 48.798 20.5 44.5447 20.5 39.298C20.5 34.0513 24.7533 29.798 30 29.798C35.2467 29.798 39.5 34.0513 39.5 39.298C39.5 41.0715 39.015 42.7286 38.171 44.1474Z" stroke="#6FCF97" stroke-width="2" style="stroke: #6FCF97; stroke-width: 2;"/>
<rect x="24.5" y="35.798" width="2" height="2" fill="#6FCF97" style="fill: #6FCF97;"/>
<rect x="28.5" y="35.798" width="7" height="2" fill="#6FCF97" style="fill: #6FCF97;"/>
<rect x="24.5" y="40.798" width="5" height="2" fill="#6FCF97" style="fill: #6FCF97;"/>
<rect x="30.5" y="40.798" width="5" height="2" fill="#6FCF97" style="fill: #6FCF97;"/>
</svg>
