<svg width="34" height="28" viewBox="0 0 34 28" fill="none" xmlns="http://www.w3.org/2000/svg">
<path d="M27 11C34.2349 11.4823 34.4906 20.805 28.2159 23.2587C27.8001 23.4214 27.5 23.8078 27.5 24.2543V25.3698C27.5 26.2893 26.3635 26.7214 25.7526 26.0341L23.8208 23.8609C23.6181 23.6329 23.3213 23.5116 23.0164 23.5216C20.0186 23.6204 18.6097 22.9528 17 20.5M8 1H17.9124C17.9707 1 18.0305 1.00524 18.0877 1.01594C26.4614 2.58178 26.9641 15.3802 18.1334 17.962C18.0466 17.9874 17.9541 18 17.8637 18H14.4806C14.1768 18 13.8895 18.1381 13.6998 18.3753L9.78087 23.2739C9.19036 24.012 8 23.5945 8 22.6492V18.9003C8 18.3885 7.61058 17.9663 7.11003 17.8598C-1.42747 16.0432 -0.224778 1.96762 8 1Z" stroke="#E0E0E0" stroke-width="1.5" stroke-linecap="round"/>
<path d="M7 6.5H18M7 9.5H18M7 12.5H13" stroke="#E0E0E0" stroke-width="1.5" stroke-linecap="round"/>
</svg>
